HIERARCHY
ROOT Hips
{
	OFFSET 0.000000 0.000000 0.000000
	CHANNELS 6 Xposition Yposition Zposition Xrotation Yrotation Zrotation
	JOINT LeftUpLeg_virtual
	{
		OFFSET 0.000000 0.000000 0.000000
		CHANNELS 3 Xrotation Yrotation Zrotation
		JOINT LeftUpLeg
		{
			OFFSET 10.205400 -3.823500 0.155100
			CHANNELS 3 Xrotation Yrotation Zrotation
			JOINT LeftLeg
			{
				OFFSET 0.708757 -12.982077 0.567790
				CHANNELS 3 Xrotation Yrotation Zrotation
				JOINT LeftFoot
				{
					OFFSET -0.708756 -10.717838 -2.184338
					CHANNELS 3 Xrotation Yrotation Zrotation
					JOINT LeftToeBase
					{
						OFFSET 0.108149 -7.191104 7.560241
						CHANNELS 3 Xrotation Yrotation Zrotation
						JOINT LeftToe_End
						{
							OFFSET 0.070230 0.081724 4.490308
							CHANNELS 3 Xrotation Yrotation Zrotation
							End Site
							{
								OFFSET 0 0 0
							}
						}
					}
				}
			}
		}
	}
	JOINT RightUpLeg_virtual
	{
		OFFSET 0.000000 0.000000 0.000000
		CHANNELS 3 Xrotation Yrotation Zrotation
		JOINT RightUpLeg
		{
			OFFSET -10.205400 -3.823500 0.005500
			CHANNELS 3 Xrotation Yrotation Zrotation
			JOINT RightLeg
			{
				OFFSET -0.708756 -12.982134 0.610632
				CHANNELS 3 Xrotation Yrotation Zrotation
				JOINT RightFoot
				{
					OFFSET 0.708754 -10.717769 -1.945823
					CHANNELS 3 Xrotation Yrotation Zrotation
					JOINT RightToeBase
					{
						OFFSET -0.108140 -7.191069 7.372968
						CHANNELS 3 Xrotation Yrotation Zrotation
						JOINT RightToe_End
						{
							OFFSET -0.070227 0.081735 4.479403
							CHANNELS 3 Xrotation Yrotation Zrotation
							End Site
							{
								OFFSET 0 0 0
							}
						}
					}
				}
			}
		}
	}
	JOINT Spine_virtual
	{
		OFFSET 0.000000 0.000000 0.000000
		CHANNELS 3 Xrotation Yrotation Zrotation
		JOINT Spine
		{
			OFFSET 0.000000 6.876099 0.125700
			CHANNELS 3 Xrotation Yrotation Zrotation
			JOINT Spine1
			{
				OFFSET 0.000000 5.730043 0.104720
				CHANNELS 3 Xrotation Yrotation Zrotation
				JOINT Spine1_split
				{
					OFFSET 0.000000 5.730043 0.104720
					CHANNELS 3 Xrotation Yrotation Zrotation
					JOINT Spine2
					{
						OFFSET 0.000000 5.730043 0.104720
						CHANNELS 3 Xrotation Yrotation Zrotation
						JOINT Neck_virtual
						{
							OFFSET 0.000000 0.000000 0.000000
							CHANNELS 3 Xrotation Yrotation Zrotation
							JOINT Neck
							{
								OFFSET 0.000000 10.314075 0.188496
								CHANNELS 3 Xrotation Yrotation Zrotation
								JOINT Head
								{
									OFFSET 0.000000 7.643700 -2.377400
									CHANNELS 3 Xrotation Yrotation Zrotation
									JOINT HeadTop_End
									{
										OFFSET 0.000000 43.788605 -13.619600
										CHANNELS 3 Xrotation Yrotation Zrotation
										End Site
										{
											OFFSET 0 0 0
										}
									}
								}
							}
						}
						JOINT LeftShoulder_virtual
						{
							OFFSET 0.000000 0.000000 0.000000
							CHANNELS 3 Xrotation Yrotation Zrotation
							JOINT LeftShoulder
							{
								OFFSET 2.196100 4.412489 0.087492
								CHANNELS 3 Xrotation Yrotation Zrotation
								JOINT LeftShoulder_split
								{
									OFFSET 2.196100 4.412489 0.087492
									CHANNELS 3 Xrotation Yrotation Zrotation
									JOINT LeftArm
									{
										OFFSET 8.771219 -2.981674 -0.026999
										CHANNELS 3 Xrotation Yrotation Zrotation
										JOINT LeftForeArm
										{
											OFFSET 8.512804 0.000000 -0.000000
											CHANNELS 3 Xrotation Yrotation Zrotation
											JOINT LeftHand
											{
												OFFSET 18.484802 0.000000 -0.000000
												CHANNELS 3 Xrotation Yrotation Zrotation
												End Site
												{
													OFFSET 0 0 0
												}
											}
										}
									}
								}
							}
						}
						JOINT RightShoulder_virtual
						{
							OFFSET 0.000000 0.000000 0.000000
							CHANNELS 3 Xrotation Yrotation Zrotation
							JOINT RightShoulder
							{
								OFFSET -2.196100 4.412496 0.070690
								CHANNELS 3 Xrotation Yrotation Zrotation
								JOINT RightShoulder_split
								{
									OFFSET -2.196100 4.412496 0.070690
									CHANNELS 3 Xrotation Yrotation Zrotation
									JOINT RightArm
									{
										OFFSET -8.771282 -2.981682 -0.094208
										CHANNELS 3 Xrotation Yrotation Zrotation
										JOINT RightForeArm
										{
											OFFSET -8.494598 0.000000 0.000000
											CHANNELS 3 Xrotation Yrotation Zrotation
											JOINT RightHand
											{
												OFFSET -18.483803 0.000000 0.000001
												CHANNELS 3 Xrotation Yrotation Zrotation
												End Site
												{
													OFFSET 0 0 0
												}
											}
										}
									}
								}
							}
						}
					}
				}
			}
		}
	}
}
MOTION
Frames: 4
Frame Time: 0.03333333
0.436695 26.759392 0.899591 0.000000 0.000000 0.000000 8.082938 1.587108 -0.891693 19.857476 6.887877 4.962070 42.405305 -8.339285 19.000884 -31.325775 7.046879 -7.696441 -42.340377 -0.539926 -5.637746 0.000000 0.000000 0.000000 10.910278 7.422116 -2.025548 -55.647757 0.427805 -3.763134 70.671858 -1.451301 0.033236 -14.224592 4.190368 -13.972253 -0.370169 1.808156 -2.837692 0.000000 0.000000 0.000000 7.441281 2.636853 -1.331216 1.104931 -5.059880 2.323413 2.551968 -2.389091 2.378495 0.738357 -1.627429 -0.269546 0.000000 0.000000 0.000000 2.506383 -2.667604 2.862738 -5.467613 2.064227 -1.880789 -16.937020 -9.172733 7.754278 0.000000 0.000000 0.000000 2.773737 -2.618010 1.692504 -0.380348 1.743599 -2.471338 -3.657966 2.886343 -2.554386 -17.449089 7.247628 -60.124325 -173.973702 -72.626344 -171.615647 0.000000 0.000000 0.000000 4.736312 -1.687218 2.716414 0.673611 -8.939215 15.776091 0.133755 6.955393 0.076027 -27.364227 8.986747 55.825001 -174.152516 56.209322 173.300163 0.000000 0.000000 0.000000 
0.097736 27.475475 0.547403 0.000000 0.000000 0.000000 8.590029 2.525818 -1.015171 17.840828 5.269027 5.125275 43.076268 -6.124582 17.636728 -21.543077 7.324674 -7.570106 -37.727714 1.215900 -8.658560 0.000000 0.000000 0.000000 10.740265 6.338501 -2.011796 -53.166186 0.376309 -4.661877 67.372583 -1.626976 0.235909 -13.456120 4.435620 -12.685715 -0.523794 2.054644 -2.402115 0.000000 0.000000 0.000000 7.832688 2.042973 -1.390646 0.992794 -4.827609 3.031327 2.393795 -2.382263 2.081185 0.476830 -1.046652 -0.868542 0.000000 0.000000 0.000000 2.694428 -2.551538 2.492630 -4.922338 2.115570 -2.116336 -16.284264 -8.889656 8.098716 0.000000 0.000000 0.000000 2.937654 -2.599857 1.542991 -0.359030 0.652147 -1.872671 -3.407416 1.402137 -1.566130 -21.390500 5.779320 -59.697452 -173.287432 -73.822665 -170.897508 0.000000 0.000000 0.000000 4.862382 -1.612865 2.476520 0.718407 -8.554444 15.324279 -0.956989 6.828349 -0.869326 -31.173779 10.681688 55.368327 -175.019991 54.561778 174.073532 0.000000 0.000000 0.000000 
-0.045710 28.762831 -0.018030 0.000000 0.000000 0.000000 8.854652 3.628990 -1.791362 12.108335 5.170378 6.426470 44.163272 -2.788400 14.422962 -2.354707 6.964048 -4.985567 -23.080526 1.607461 -11.922235 0.000000 0.000000 0.000000 10.603414 5.306220 -2.567097 -47.888270 1.336388 -4.952755 58.251446 -0.942837 -0.035471 -9.359404 4.535852 -10.892248 -1.543378 2.131212 -1.599290 0.000000 0.000000 0.000000 8.194397 1.696131 -1.683361 1.362598 -3.968463 4.121894 2.238482 -2.160678 1.450471 0.443608 -0.285614 -1.015883 0.000000 0.000000 0.000000 2.727494 -2.255798 1.764131 -4.158371 1.995433 -2.261275 -14.816000 -8.555525 8.434065 0.000000 0.000000 0.000000 3.090706 -2.304952 1.145213 -0.282881 -1.212480 -1.224979 -2.542149 0.643268 -0.976246 -27.965930 2.087223 -58.367040 -171.598667 -76.732162 -169.303724 0.000000 0.000000 0.000000 4.887428 -1.432992 1.881331 0.763482 -8.043189 14.112288 -1.078906 5.442328 -0.818012 -38.447999 13.748818 54.678021 -175.311722 55.551814 174.351357 0.000000 0.000000 0.000000 
0.064388 30.295256 -0.620071 0.000000 0.000000 0.000000 8.854483 3.875588 -3.103206 3.852085 5.559776 8.866975 46.909128 0.585152 10.913512 21.090444 6.948662 -1.287589 -5.428415 0.432112 -14.054246 0.000000 0.000000 0.000000 10.332431 4.988435 -3.747862 -40.460470 2.881233 -4.336479 46.397509 0.056735 0.051406 -1.858760 4.355049 -8.711905 -5.777648 1.771873 -0.660848 0.000000 0.000000 0.000000 8.261897 1.857724 -2.273076 2.236678 -2.701776 5.312144 2.253969 -1.760364 0.736986 0.392913 0.466534 -0.485180 0.000000 0.000000 0.000000 2.724372 -1.807678 1.017569 -3.370855 1.808976 -2.387696 -12.907855 -8.166901 8.733449 0.000000 0.000000 0.000000 3.298435 -1.820112 0.736274 -0.151145 -3.550745 -0.492603 -1.802486 0.834416 -0.827999 -36.241154 -3.135268 -57.077504 -167.616039 -81.206919 -165.567378 0.000000 0.000000 0.000000 4.917043 -1.164999 1.188280 0.716742 -7.493484 12.083150 -0.612955 3.570710 -0.389158 -47.607795 17.312207 54.563957 -175.154232 59.393945 174.309925 0.000000 0.000000 0.000000 
